<svg xmlns="http://www.w3.org/2000/svg" version="1.1" viewBox="3.1683993339538574 1.8283448219299316 625.8316040039062 614.492919921875" width="629.00" height="619.00">
<g stroke-width="2.00" fill="none" stroke-linecap="butt">

<rect fill="#3a79ad" fill-opacity="0.965" x="-4.67" y="-28.96" transform="translate(141.20,223.36) rotate(-39.2)" width="9.34" height="57.92" rx="4.59"/>
<path fill="#3a79ad" fill-opacity="0.965" d="&#10;  M 156.90 199.77&#10;  Q 160.13 200.17 160.91 203.18&#10;  Q 161.05 210.65 160.96 220.09&#10;  C 160.90 226.03 152.08 226.04 152.12 219.62&#10;  Q 152.16 212.05 152.02 204.47&#10;  C 151.97 201.56 153.89 199.63 156.90 199.77&#10;  Z"/>
<path fill="#333333" fill-opacity="0.973" d="&#10;  M 298.28 206.45&#10;  L 298.65 204.37&#10;  Q 298.77 203.71 299.43 203.82&#10;  Q 299.59 203.85 299.72 203.96&#10;  Q 299.86 204.09 299.86 204.27&#10;  L 299.76 215.96&#10;  Q 299.76 216.41 299.31 216.41&#10;  L 298.98 216.41&#10;  A 0.61 0.60 87.9 0 1 298.39 215.86&#10;  Q 297.56 206.95 290.32 204.67&#10;  C 280.20 201.48 275.29 210.47 274.38 218.89&#10;  C 273.79 224.32 274.01 229.94 275.90 235.08&#10;  C 278.41 241.86 285.64 244.07 292.06 241.41&#10;  C 293.64 240.76 294.64 239.52 294.61 237.76&#10;  Q 294.56 234.24 294.52 230.81&#10;  C 294.47 227.42 291.87 227.50 289.40 227.20&#10;  Q 289.08 227.17 289.09 226.84&#10;  L 289.11 226.53&#10;  A 0.35 0.34 0.8 0 1 289.46 226.20&#10;  L 302.00 226.21&#10;  Q 302.45 226.22 302.46 226.67&#10;  L 302.46 226.95&#10;  Q 302.47 227.23 302.19 227.25&#10;  Q 299.72 227.41 299.71 229.83&#10;  Q 299.69 236.40 299.68 242.15&#10;  Q 299.68 242.67 299.23 242.92&#10;  Q 298.94 243.08 298.69 242.63&#10;  Q 298.58 242.44 298.53 242.22&#10;  L 298.23 240.82&#10;  A 1.33 1.33 0.0 0 0 296.09 240.06&#10;  Q 291.38 243.91 285.86 243.59&#10;  C 270.27 242.69 266.93 229.65 269.50 216.77&#10;  C 271.87 204.95 286.72 198.26 296.60 207.04&#10;  A 1.02 1.02 0.0 0 0 298.28 206.45&#10;  Z"/>
<path fill="#333333" fill-opacity="0.973" d="&#10;  M 235.59 211.22&#10;  Q 235.23 212.68 235.56 214.07&#10;  Q 235.68 214.57 236.20 214.57&#10;  L 243.25 214.56&#10;  Q 243.78 214.56 243.71 215.09&#10;  L 243.65 215.45&#10;  A 0.31 0.30 2.1 0 1 243.35 215.72&#10;  L 235.92 215.83&#10;  A 0.46 0.46 0.0 0 0 235.46 216.29&#10;  Q 235.39 226.77 235.48 237.78&#10;  C 235.51 240.98 238.56 242.95 241.09 240.86&#10;  Q 243.03 239.25 243.69 236.29&#10;  A 0.28 0.28 0.0 0 1 243.94 236.06&#10;  L 244.44 236.00&#10;  A 0.38 0.38 0.0 0 1 244.85 236.47&#10;  C 243.58 241.94 240.03 245.26 234.53 243.01&#10;  Q 230.65 241.42 230.50 235.53&#10;  Q 230.28 226.20 230.45 216.28&#10;  A 0.56 0.55 -89.5 0 0 229.90 215.71&#10;  L 225.22 215.74&#10;  Q 224.98 215.39 225.07 215.05&#10;  Q 225.20 214.57 225.70 214.57&#10;  L 229.79 214.59&#10;  A 0.63 0.63 0.0 0 0 230.42 213.96&#10;  L 230.40 206.46&#10;  Q 230.40 206.08 230.79 206.04&#10;  L 235.25 205.65&#10;  Q 235.49 205.63 235.49 205.88&#10;  L 235.59 211.22&#10;  Z"/>
<path fill="#333333" fill-opacity="0.973" d="&#10;  M 188.62 225.95&#10;  L 171.65 225.99&#10;  Q 171.27 225.99 171.23 226.36&#10;  Q 170.62 231.16 172.24 235.42&#10;  C 174.30 240.80 179.68 243.16 184.71 239.76&#10;  Q 186.49 238.57 187.40 236.43&#10;  A 0.63 0.63 0.0 0 1 188.16 236.07&#10;  L 188.45 236.16&#10;  Q 188.77 236.26 188.64 236.57&#10;  C 185.84 242.81 179.34 245.24 173.23 242.48&#10;  C 167.63 239.96 165.52 233.59 165.98 227.76&#10;  Q 166.53 220.66 170.62 216.54&#10;  Q 174.68 213.08 180.22 213.86&#10;  C 186.37 214.72 188.65 219.91 188.62 225.95&#10;  Z&#10;  M 171.61 224.78&#10;  L 183.19 225.00&#10;  A 0.23 0.23 0.0 0 0 183.43 224.77&#10;  L 183.43 224.33&#10;  A 9.45 5.91 -88.9 0 0 177.71 214.77&#10;  L 177.49 214.77&#10;  A 9.45 5.91 -88.9 0 0 171.40 224.10&#10;  L 171.39 224.54&#10;  A 0.23 0.23 0.0 0 0 171.61 224.78&#10;  Z"/>
<path fill="#333333" fill-opacity="0.973" d="&#10;  M 312.26 226.69&#10;  Q 311.94 230.31 312.73 233.76&#10;  C 313.72 238.06 317.16 241.82 321.84 241.22&#10;  Q 326.32 240.64 328.41 236.34&#10;  A 0.62 0.62 0.0 0 1 329.14 236.02&#10;  L 329.43 236.10&#10;  Q 329.80 236.21 329.63 236.55&#10;  Q 325.94 244.46 317.76 243.49&#10;  C 309.30 242.49 306.66 235.13 307.00 227.39&#10;  Q 307.23 222.35 309.60 218.76&#10;  C 314.02 212.04 326.07 211.45 328.67 219.99&#10;  Q 329.42 222.46 329.57 225.38&#10;  A 0.58 0.57 -1.8 0 1 328.99 225.99&#10;  L 313.05 225.97&#10;  Q 312.32 225.97 312.26 226.69&#10;  Z&#10;  M 312.69 224.76&#10;  L 324.02 225.02&#10;  A 0.23 0.23 0.0 0 0 324.26 224.79&#10;  L 324.27 224.13&#10;  A 9.19 5.63 -88.7 0 0 318.85 214.82&#10;  L 318.31 214.81&#10;  A 9.19 5.63 -88.7 0 0 312.48 223.87&#10;  L 312.46 224.52&#10;  A 0.23 0.23 0.0 0 0 312.69 224.76&#10;  Z"/>
<path fill="#333333" fill-opacity="0.973" d="&#10;  M 344.02 219.19&#10;  C 344.69 218.38 345.18 217.11 345.97 216.45&#10;  C 351.42 211.93 360.63 212.49 360.73 221.40&#10;  Q 360.82 229.61 360.77 238.45&#10;  C 360.75 240.53 362.65 241.72 364.58 241.64&#10;  Q 364.90 241.63 364.90 241.95&#10;  L 364.91 242.21&#10;  Q 364.91 242.80 364.32 242.80&#10;  L 352.27 242.74&#10;  Q 352.07 242.74 352.08 242.53&#10;  L 352.08 242.20&#10;  Q 352.08 241.71 352.57 241.68&#10;  Q 355.77 241.50 355.79 238.41&#10;  Q 355.84 229.39 355.80 220.88&#10;  C 355.79 218.55 355.19 216.11 352.48 215.67&#10;  C 347.06 214.81 343.96 219.55 343.85 224.63&#10;  Q 343.69 232.16 343.87 238.92&#10;  Q 343.95 241.76 346.86 241.59&#10;  A 0.36 0.36 0.0 0 1 347.24 241.95&#10;  L 347.23 242.27&#10;  Q 347.23 242.78 346.72 242.78&#10;  L 334.55 242.75&#10;  Q 334.28 242.75 334.28 242.48&#10;  L 334.28 242.17&#10;  A 0.52 0.52 0.0 0 1 334.82 241.66&#10;  Q 338.57 241.75 338.68 237.88&#10;  Q 338.96 227.58 338.55 219.25&#10;  Q 338.37 215.75 334.81 215.70&#10;  A 0.50 0.49 -88.3 0 1 334.32 215.17&#10;  L 334.34 214.83&#10;  A 0.31 0.30 6.1 0 1 334.69 214.55&#10;  Q 339.02 215.12 343.16 213.95&#10;  Q 343.88 213.74 343.85 214.50&#10;  L 343.68 219.06&#10;  Q 343.65 219.65 344.02 219.19&#10;  Z"/>
<path fill="#333333" fill-opacity="0.973" d="&#10;  M 217.70 215.93&#10;  Q 213.17 220.10 209.08 226.69&#10;  A 1.00 0.99 -46.6 0 0 209.11 227.79&#10;  Q 213.03 233.47 216.94 239.20&#10;  C 217.67 240.26 218.18 240.61 219.22 241.32&#10;  Q 221.25 242.73 218.78 242.74&#10;  L 210.41 242.80&#10;  Q 210.08 242.80 209.91 242.52&#10;  Q 209.79 242.33 209.86 242.05&#10;  A 0.45 0.44 -87.0 0 1 210.23 241.71&#10;  Q 211.29 241.58 211.80 240.81&#10;  Q 212.11 240.34 211.79 239.89&#10;  L 205.82 231.18&#10;  A 0.46 0.46 0.0 0 0 205.10 231.14&#10;  Q 202.33 234.28 200.47 237.45&#10;  C 199.05 239.88 201.03 241.84 203.48 241.60&#10;  A 0.46 0.45 86.5 0 1 203.98 242.05&#10;  L 203.98 242.40&#10;  Q 203.98 242.78 203.60 242.78&#10;  L 194.28 242.77&#10;  Q 192.30 242.77 194.03 241.79&#10;  C 195.20 241.12 196.27 240.50 197.13 239.42&#10;  Q 200.60 235.02 204.40 230.04&#10;  Q 204.75 229.59 204.43 229.12&#10;  Q 200.43 223.18 196.01 217.00&#10;  C 195.68 216.53 194.98 216.16 194.46 215.96&#10;  Q 194.01 215.67 193.93 215.59&#10;  Q 192.96 214.57 194.37 214.66&#10;  Q 198.71 214.94 203.30 214.57&#10;  Q 203.78 214.53 203.99 214.97&#10;  L 204.10 215.21&#10;  A 0.28 0.28 0.0 0 1 203.92 215.60&#10;  L 202.31 216.05&#10;  A 0.77 0.77 0.0 0 0 201.88 217.23&#10;  L 207.39 225.32&#10;  Q 207.93 226.11 208.51 225.36&#10;  Q 211.15 221.98 213.20 218.47&#10;  A 1.74 1.74 0.0 0 0 211.73 215.85&#10;  Q 211.26 215.84 210.83 215.69&#10;  A 0.66 0.65 8.9 0 1 210.40 215.11&#10;  Q 210.39 214.76 210.70 214.65&#10;  A 1.86 1.67 -48.1 0 1 211.44 214.57&#10;  Q 214.99 214.90 218.51 214.57&#10;  Q 219.09 214.52 219.18 215.10&#10;  Q 219.32 216.00 217.70 215.93&#10;  Z"/>
<path fill="#feffff" fill-opacity="0.957" d="&#10;  M 171.61 224.78&#10;  A 0.23 0.23 0.0 0 1 171.39 224.54&#10;  L 171.40 224.10&#10;  A 9.45 5.91 -88.9 0 1 177.49 214.77&#10;  L 177.71 214.77&#10;  A 9.45 5.91 -88.9 0 1 183.43 224.33&#10;  L 183.43 224.77&#10;  A 0.23 0.23 0.0 0 1 183.19 225.00&#10;  L 171.61 224.78&#10;  Z"/>
<path fill="#feffff" fill-opacity="0.957" d="&#10;  M 312.69 224.76&#10;  A 0.23 0.23 0.0 0 1 312.46 224.52&#10;  L 312.48 223.87&#10;  A 9.19 5.63 -88.7 0 1 318.31 214.81&#10;  L 318.85 214.82&#10;  A 9.19 5.63 -88.7 0 1 324.27 224.13&#10;  L 324.26 224.79&#10;  A 0.23 0.23 0.0 0 1 324.02 225.02&#10;  L 312.69 224.76&#10;  Z"/>
<path fill="#3a79ad" fill-opacity="0.965" d="&#10;  M 121.43 244.50&#10;  Q 120.98 236.22 121.34 226.60&#10;  C 121.56 220.69 130.23 220.80 130.33 226.79&#10;  Q 130.54 238.04 130.10 243.59&#10;  Q 129.93 245.76 127.52 246.55&#10;  Q 123.73 247.79 121.43 244.50&#10;  Z"/>
<path fill="#333333" fill-opacity="0.973" d="&#10;  M 218.1800 264.4000&#10;  A 5.39 4.38 90.0 0 1 213.8000 259.0100&#10;  A 5.39 4.38 90.0 0 1 218.1800 253.6200&#10;  A 5.39 4.38 90.0 0 1 222.5600 259.0100&#10;  A 5.39 4.38 90.0 0 1 218.1800 264.4000&#10;  Z&#10;  M 218.1624 263.3600&#10;  A 4.36 3.12 90.1 0 0 221.2900 259.0054&#10;  A 4.36 3.12 90.1 0 0 218.1776 254.6400&#10;  A 4.36 3.12 90.1 0 0 215.0500 258.9946&#10;  A 4.36 3.12 90.1 0 0 218.1624 263.3600&#10;  Z"/>
<path fill="#333333" fill-opacity="0.973" d="&#10;  M 272.01 255.22&#10;  A 1.45 1.45 0.0 0 0 272.47 257.81&#10;  Q 274.52 258.35 275.97 259.57&#10;  C 277.15 260.57 276.89 262.79 275.59 263.60&#10;  Q 272.65 265.43 270.00 262.99&#10;  Q 269.92 262.92 269.95 262.81&#10;  L 270.08 262.41&#10;  Q 270.27 261.82 270.74 262.23&#10;  Q 272.57 263.87 274.59 263.01&#10;  A 1.63 1.62 44.3 0 0 274.55 260.01&#10;  Q 272.93 259.35 271.44 258.52&#10;  C 269.65 257.52 269.87 254.78 271.80 254.07&#10;  Q 274.10 253.22 276.13 254.68&#10;  A 0.31 0.31 0.0 0 1 276.19 255.12&#10;  L 276.04 255.33&#10;  Q 275.78 255.67 275.42 255.43&#10;  Q 273.51 254.16 272.01 255.22&#10;  Z"/>
<path fill="#333333" fill-opacity="0.973" d="&#10;  M 283.55 262.11&#10;  Q 283.92 261.21 283.30 260.51&#10;  C 282.42 259.52 280.50 259.13 279.32 258.29&#10;  A 2.27 2.27 0.0 0 1 278.98 254.90&#10;  Q 280.97 252.76 284.27 254.51&#10;  A 0.43 0.42 -57.7 0 1 284.41 255.14&#10;  L 284.24 255.36&#10;  A 0.46 0.46 0.0 0 1 283.60 255.45&#10;  Q 282.07 254.31 280.46 255.03&#10;  A 1.44 1.44 0.0 0 0 280.62 257.73&#10;  Q 282.41 258.28 283.92 259.31&#10;  C 285.37 260.30 285.24 262.61 283.87 263.57&#10;  Q 281.06 265.52 278.12 262.87&#10;  Q 277.98 262.74 278.05 262.57&#10;  L 278.22 262.19&#10;  Q 278.42 261.70 278.78 262.09&#10;  C 279.87 263.26 282.72 264.11 283.55 262.11&#10;  Z"/>
<path fill="#333333" fill-opacity="0.973" d="&#10;  M 205.20 262.63&#10;  L 204.76 263.71&#10;  Q 204.56 264.20 204.03 264.28&#10;  Q 203.14 264.41 203.01 263.52&#10;  Q 202.74 261.63 202.45 261.01&#10;  L 201.25 254.53&#10;  A 0.41 0.40 0.5 0 1 201.73 254.06&#10;  L 202.12 254.13&#10;  A 0.63 0.63 0.0 0 1 202.63 254.74&#10;  Q 202.69 258.20 203.82 260.99&#10;  Q 204.25 262.06 204.53 260.94&#10;  Q 205.25 258.03 205.89 254.98&#10;  Q 206.00 254.46 206.42 254.17&#10;  Q 206.74 253.94 207.10 254.02&#10;  Q 207.59 254.13 207.70 254.62&#10;  L 209.33 262.00&#10;  Q 209.70 263.68 209.98 261.98&#10;  L 211.19 254.59&#10;  A 0.50 0.48 -1.0 0 1 211.60 254.18&#10;  L 212.11 254.10&#10;  Q 212.50 254.03 212.42 254.42&#10;  L 210.52 263.79&#10;  A 0.60 0.60 0.0 0 1 209.59 264.17&#10;  Q 208.55 263.47 208.36 262.20&#10;  Q 207.95 259.51 207.11 256.89&#10;  Q 206.68 255.56 206.40 256.93&#10;  L 205.20 262.63&#10;  Z"/>
<path fill="#333333" fill-opacity="0.973" d="&#10;  M 225.86 260.40&#10;  L 225.87 263.79&#10;  Q 225.87 264.18 225.48 264.17&#10;  L 225.18 264.16&#10;  Q 224.82 264.16 224.82 263.80&#10;  L 224.80 254.76&#10;  A 0.70 0.69 -89.6 0 1 225.50 254.06&#10;  L 229.31 254.07&#10;  A 2.47 2.47 0.0 0 1 231.66 257.26&#10;  Q 231.21 258.72 229.89 259.41&#10;  Q 229.28 259.73 229.65 260.32&#10;  L 231.77 263.75&#10;  Q 231.90 263.95 231.68 264.07&#10;  L 231.38 264.22&#10;  Q 230.92 264.46 230.62 264.04&#10;  C 229.47 262.46 228.87 259.58 226.48 259.74&#10;  Q 225.85 259.78 225.86 260.40&#10;  Z&#10;  M 225.81 255.41&#10;  L 225.89 258.29&#10;  A 0.54 0.54 0.0 0 0 226.45 258.81&#10;  L 227.81 258.77&#10;  A 2.78 1.73 -1.7 0 0 230.54 256.96&#10;  L 230.52 256.46&#10;  A 2.78 1.73 -1.7 0 0 227.69 254.81&#10;  L 226.33 254.85&#10;  A 0.54 0.54 0.0 0 0 225.81 255.41&#10;  Z"/>
<path fill="#333333" fill-opacity="0.973" d="&#10;  M 234.12 254.48&#10;  A 0.46 0.46 0.0 0 1 234.58 254.02&#10;  L 237.04 254.02&#10;  A 4.30 4.30 0.0 0 1 241.34 258.32&#10;  L 241.34 259.84&#10;  A 4.30 4.30 0.0 0 1 237.04 264.14&#10;  L 234.58 264.14&#10;  A 0.46 0.46 0.0 0 1 234.12 263.68&#10;  L 234.12 254.48&#10;  Z&#10;  M 235.18 255.38&#10;  L 235.16 262.66&#10;  A 0.57 0.57 0.0 0 0 235.73 263.23&#10;  L 236.79 263.24&#10;  A 3.31 3.18 0.2 0 0 240.11 260.07&#10;  L 240.11 258.01&#10;  A 3.31 3.18 0.2 0 0 236.81 254.82&#10;  L 235.75 254.81&#10;  A 0.57 0.57 0.0 0 0 235.18 255.38&#10;  Z"/>
<path fill="#333333" fill-opacity="0.973" d="&#10;  M 244.85 260.74&#10;  L 244.89 263.85&#10;  Q 244.89 264.17 244.57 264.16&#10;  L 244.17 264.16&#10;  Q 243.83 264.15 243.83 263.81&#10;  L 243.82 255.22&#10;  Q 243.82 254.01 245.03 254.04&#10;  L 248.41 254.13&#10;  Q 250.02 254.17 250.50 255.71&#10;  C 251.57 259.18 248.17 260.27 245.53 260.10&#10;  Q 244.85 260.06 244.85 260.74&#10;  Z&#10;  M 244.81 255.44&#10;  L 244.87 258.58&#10;  A 0.59 0.59 0.0 0 0 245.48 259.16&#10;  L 246.96 259.13&#10;  A 2.67 1.94 -1.2 0 0 249.58 257.13&#10;  L 249.57 256.69&#10;  A 2.67 1.94 -1.2 0 0 246.86 254.81&#10;  L 245.39 254.84&#10;  A 0.59 0.59 0.0 0 0 244.81 255.44&#10;  Z"/>
<path fill="#333333" fill-opacity="0.973" d="&#10;  M 253.88 260.37&#10;  L 253.90 263.85&#10;  Q 253.90 264.15 253.60 264.14&#10;  L 253.28 264.14&#10;  Q 252.90 264.13 252.90 263.76&#10;  L 252.90 254.79&#10;  Q 252.90 254.05 253.64 254.07&#10;  C 255.67 254.14 258.27 253.36 259.45 255.48&#10;  C 260.41 257.20 259.15 258.71 257.73 259.50&#10;  Q 257.26 259.77 257.55 260.22&#10;  L 259.76 263.76&#10;  Q 260.02 264.17 259.53 264.22&#10;  L 258.89 264.28&#10;  A 0.34 0.33 74.7 0 1 258.56 264.09&#10;  C 257.55 262.01 256.47 259.22 254.33 259.78&#10;  Q 253.88 259.90 253.88 260.37&#10;  Z&#10;  M 253.81 255.43&#10;  L 253.91 258.29&#10;  A 0.55 0.55 0.0 0 0 254.48 258.82&#10;  L 256.00 258.77&#10;  A 2.61 1.79 -2.0 0 0 258.55 256.89&#10;  L 258.53 256.51&#10;  A 2.61 1.79 -2.0 0 0 255.86 254.81&#10;  L 254.34 254.86&#10;  A 0.55 0.55 0.0 0 0 253.81 255.43&#10;  Z"/>
<path fill="#333333" fill-opacity="0.973" d="&#10;  M 263.38 259.52&#10;  L 263.39 263.01&#10;  A 0.22 0.22 0.0 0 0 263.61 263.23&#10;  L 267.72 263.14&#10;  A 0.22 0.22 0.0 0 1 267.94 263.39&#10;  L 267.85 263.99&#10;  A 0.22 0.22 0.0 0 1 267.63 264.18&#10;  L 262.32 264.21&#10;  A 0.22 0.22 0.0 0 1 262.10 263.99&#10;  L 262.14 254.27&#10;  A 0.22 0.22 0.0 0 1 262.36 254.05&#10;  L 267.66 254.05&#10;  A 0.22 0.22 0.0 0 1 267.88 254.27&#10;  L 267.89 254.71&#10;  A 0.22 0.22 0.0 0 1 267.67 254.93&#10;  L 263.60 254.96&#10;  A 0.22 0.22 0.0 0 0 263.38 255.18&#10;  L 263.39 258.02&#10;  A 0.22 0.22 0.0 0 0 263.61 258.24&#10;  L 267.09 258.25&#10;  A 0.22 0.22 0.0 0 1 267.30 258.44&#10;  L 267.37 258.98&#10;  A 0.22 0.22 0.0 0 1 267.16 259.22&#10;  L 263.60 259.30&#10;  A 0.22 0.22 0.0 0 0 263.38 259.52&#10;  Z"/>
<ellipse fill="#feffff" fill-opacity="0.957" cx="0.00" cy="0.00" transform="translate(218.17,259.00) rotate(90.1)" rx="4.36" ry="3.12"/>
<path fill="#feffff" fill-opacity="0.957" d="&#10;  M 225.81 255.41&#10;  A 0.54 0.54 0.0 0 1 226.33 254.85&#10;  L 227.69 254.81&#10;  A 2.78 1.73 -1.7 0 1 230.52 256.46&#10;  L 230.54 256.96&#10;  A 2.78 1.73 -1.7 0 1 227.81 258.77&#10;  L 226.45 258.81&#10;  A 0.54 0.54 0.0 0 1 225.89 258.29&#10;  L 225.81 255.41&#10;  Z"/>
<path fill="#feffff" fill-opacity="0.957" d="&#10;  M 235.18 255.38&#10;  A 0.57 0.57 0.0 0 1 235.75 254.81&#10;  L 236.81 254.82&#10;  A 3.31 3.18 0.2 0 1 240.11 258.01&#10;  L 240.11 260.07&#10;  A 3.31 3.18 0.2 0 1 236.79 263.24&#10;  L 235.73 263.23&#10;  A 0.57 0.57 0.0 0 1 235.16 262.66&#10;  L 235.18 255.38&#10;  Z"/>
<path fill="#feffff" fill-opacity="0.957" d="&#10;  M 244.81 255.44&#10;  A 0.59 0.59 0.0 0 1 245.39 254.84&#10;  L 246.86 254.81&#10;  A 2.67 1.94 -1.2 0 1 249.57 256.69&#10;  L 249.58 257.13&#10;  A 2.67 1.94 -1.2 0 1 246.96 259.13&#10;  L 245.48 259.16&#10;  A 0.59 0.59 0.0 0 1 244.87 258.58&#10;  L 244.81 255.44&#10;  Z"/>
<path fill="#feffff" fill-opacity="0.957" d="&#10;  M 253.81 255.43&#10;  A 0.55 0.55 0.0 0 1 254.34 254.86&#10;  L 255.86 254.81&#10;  A 2.61 1.79 -2.0 0 1 258.53 256.51&#10;  L 258.55 256.89&#10;  A 2.61 1.79 -2.0 0 1 256.00 258.77&#10;  L 254.48 258.82&#10;  A 0.55 0.55 0.0 0 1 253.91 258.29&#10;  L 253.81 255.43&#10;  Z"/>
<rect fill="#3B7AAF" fill-opacity="0.973" x="127.74" y="258.11" width="69.32" height="1.60" rx="0.73"/>
<rect fill="#3B7AAF" fill-opacity="0.973" x="289.01" y="258.16" width="69.38" height="1.48" rx="0.68"/>
</g>
</svg>