<svg xmlns="http://www.w3.org/2000/svg" version="1.1" viewBox="3.1683993339538574 1.8283448219299316 625.8316040039062 614.492919921875" width="629.00" height="619.00">
<g data-v-0dd9719b="" fill="#333" class="iconlinesvg-g iconlinesvg" transform="translate(74.72200775146484,100.43456077575684)"><g class="tp-name" transform="translate(0,0)"><g transform="translate(0, 0)"><g><g class="imagesvg"><g><rect fill="#333" fill-opacity="0" stroke-width="2" x="0" y="0" width="30.578646196789947" height="35.97487787857641" class="image-rect"></rect> <svg x="0" y="0" width="30.578646196789947" height="35.97487787857641" filtersec="colorsb987254570" class="image-svg-svg primary" style="overflow: visible;"><svg xmlns="http://www.w3.org/2000/svg" viewBox="-3.565390613857744e-7 0 85 100.00000762939453"><title>资源 53</title><path d="M85 90a10 10 0 0 0-2.24-6.3l-65-80A10 10 0 0 0 10 0 10 10 0 0 0 0 10a10 10 0 0 0 2.24 6.31l65 80A10 10 0 0 0 75 100a10 10 0 0 0 10-10z" fill="#3B7AAF"></path><path d="M85 42.43V10A10 10 0 0 0 75 0a10 10 0 0 0-10 10v32.43a10 10 0 0 0 2.24 6.3A10 10 0 0 0 85 42.43z" fill="#3B668C"></path><path d="M0 57.57V90a10 10 0 0 0 10 10 10 10 0 0 0 10-10V57.57a10 10 0 0 0-2.24-6.3A10 10 0 0 0 0 57.57z" fill="#3B7AAF"></path></svg></svg> <!----></g></g></g></g><g transform="translate(34, 3.0397766922540104)"><g data-gra="path-name" fill="#333" transform="scale(1)"><path d="M24.16-12.35Q24.16-11.26 24.03-10.05L24.03-10.05L5.69-10.05Q5.90-6.66 8.02-4.75Q10.13-2.85 13.15-2.85L13.15-2.85Q15.62-2.85 17.27-4.00Q18.93-5.15 19.60-7.08L19.60-7.08L23.70-7.08Q22.78-3.77 20.01-1.70Q17.25 0.38 13.15 0.38L13.15 0.38Q9.88 0.38 7.31-1.09Q4.73-2.55 3.27-5.25Q1.80-7.96 1.80-11.51L1.80-11.51Q1.80-15.07 3.22-17.75Q4.65-20.43 7.22-21.88Q9.80-23.32 13.15-23.32L13.15-23.32Q16.41-23.32 18.93-21.90Q21.44-20.47 22.80-17.98Q24.16-15.49 24.16-12.35L24.16-12.35ZM20.22-13.15Q20.22-15.32 19.26-16.89Q18.30-18.46 16.64-19.28Q14.99-20.10 12.98-20.10L12.98-20.10Q10.09-20.10 8.06-18.26Q6.03-16.41 5.74-13.15L5.74-13.15L20.22-13.15Z" transform="translate(-1.8004187020237263, 29.518492672714583)"></path></g></g><g transform="translate(60, 3.0397766922540104)"><g data-gra="path-name" fill="#333" transform="scale(1)"><path d="M19.51 0L15.20 0L9.76-8.54L4.52 0L0.54 0L7.96-11.39L0.54-22.94L4.86-22.94L10.30-14.45L15.49-22.94L19.47-22.94L12.10-11.60L19.51 0Z" transform="translate(-0.5443126308443824, 29.518492672714583)"></path></g></g><g transform="translate(82, 3.0397766922540104)"><g data-gra="path-name" fill="#333" transform="scale(1)"><path d="M13.86-19.80L7.87-19.80L7.87-6.28Q7.87-4.61 8.58-3.91Q9.30-3.22 11.05-3.22L11.05-3.22L13.86-3.22L13.86 0L10.43 0Q7.24 0 5.65-1.47Q4.06-2.93 4.06-6.28L4.06-6.28L4.06-19.80L1.09-19.80L1.09-22.94L4.06-22.94L4.06-28.72L7.87-28.72L7.87-22.94L13.86-22.94L13.86-19.80Z" transform="translate(-1.0886252616887648, 29.518492672714583)"></path></g></g><g transform="translate(98, 3.0397766922540104)"><g data-gra="path-name" fill="#333" transform="scale(1)"><path d="" transform="translate(0, 29.518492672714583)"></path></g></g><g transform="translate(112, 3.0397766922540104)"><g data-gra="path-name" fill="#333" transform="scale(1)"><path d="M29.90-20.73L25.33-20.73Q24.12-23.28 21.81-24.68Q19.51-26.09 16.45-26.09L16.45-26.09Q13.40-26.09 10.95-24.68Q8.50-23.28 7.10-20.66Q5.69-18.05 5.69-14.61L5.69-14.61Q5.69-11.18 7.10-8.58Q8.50-5.99 10.95-4.58Q13.40-3.18 16.45-3.18L16.45-3.18Q20.73-3.18 23.49-5.74Q26.25-8.29 26.71-12.64L26.71-12.64L15.07-12.64L15.07-15.74L30.77-15.74L30.77-12.81Q30.44-9.21 28.51-6.22Q26.59-3.22 23.45-1.49Q20.31 0.25 16.45 0.25L16.45 0.25Q12.39 0.25 9.04-1.65Q5.69-3.56 3.75-6.95Q1.80-10.34 1.80-14.61L1.80-14.61Q1.80-18.88 3.75-22.30Q5.69-25.71 9.04-27.61Q12.39-29.52 16.45-29.52L16.45-29.52Q21.10-29.52 24.68-27.22Q28.26-24.91 29.90-20.73L29.90-20.73Z" transform="translate(-1.8004187020237263, 29.518492672714583)"></path></g></g><g transform="translate(144, 3.0397766922540104)"><g data-gra="path-name" fill="#333" transform="scale(1)"><path d="M24.16-12.35Q24.16-11.26 24.03-10.05L24.03-10.05L5.69-10.05Q5.90-6.66 8.02-4.75Q10.13-2.85 13.15-2.85L13.15-2.85Q15.62-2.85 17.27-4.00Q18.93-5.15 19.60-7.08L19.60-7.08L23.70-7.08Q22.78-3.77 20.01-1.70Q17.25 0.38 13.15 0.38L13.15 0.38Q9.88 0.38 7.31-1.09Q4.73-2.55 3.27-5.25Q1.80-7.96 1.80-11.51L1.80-11.51Q1.80-15.07 3.22-17.75Q4.65-20.43 7.22-21.88Q9.80-23.32 13.15-23.32L13.15-23.32Q16.41-23.32 18.93-21.90Q21.44-20.47 22.80-17.98Q24.16-15.49 24.16-12.35L24.16-12.35ZM20.22-13.15Q20.22-15.32 19.26-16.89Q18.30-18.46 16.64-19.28Q14.99-20.10 12.98-20.10L12.98-20.10Q10.09-20.10 8.06-18.26Q6.03-16.41 5.74-13.15L5.74-13.15L20.22-13.15Z" transform="translate(-1.8004187020237263, 29.518492672714583)"></path></g></g><g transform="translate(170, 3.0397766922540104)"><g data-gra="path-name" fill="#333" transform="scale(1)"><path d="M14.40-23.36Q18.59-23.36 21.19-20.83Q23.78-18.30 23.78-13.52L23.78-13.52L23.78 0L20.01 0L20.01-12.98Q20.01-16.41 18.30-18.23Q16.58-20.06 13.61-20.06L13.61-20.06Q10.59-20.06 8.81-18.17Q7.03-16.29 7.03-12.69L7.03-12.69L7.03 0L3.22 0L3.22-22.94L7.03-22.94L7.03-19.68Q8.16-21.44 10.11-22.40Q12.06-23.36 14.40-23.36L14.40-23.36Z" transform="translate(-3.2240055826936493, 29.518492672714583)"></path></g></g></g> <g data-gra="path-slogan" fill-rule="" class="tp-slogan" fill="#333" transform="translate(5,40.97488021850586)"><rect x="0" height="1" y="3.580000400543213" width="55.382991790771484"></rect> <rect height="1" y="3.580000400543213" width="55.382991790771484" x="125.17299270629883"></rect> <g transform="translate(58.382991790771484,0)"><g transform="scale(1)"><path d="M10.26-8.36L11.44-8.36L9.01 0L7.79 0L5.84-6.73L3.83 0L2.62 0.01L0.28-8.36L1.44-8.36L3.26-1.27L5.28-8.36L6.50-8.36L8.42-1.30L10.26-8.36ZM16.43 0.08Q15.26 0.08 14.30-0.46Q13.34-1.01 12.79-1.99Q12.23-2.96 12.23-4.19L12.23-4.19Q12.23-5.41 12.79-6.39Q13.34-7.37 14.30-7.91Q15.26-8.46 16.43-8.46L16.43-8.46Q17.60-8.46 18.56-7.91Q19.52-7.37 20.08-6.40Q20.63-5.42 20.63-4.19L20.63-4.19Q20.63-2.95 20.08-1.98Q19.52-1.01 18.56-0.46Q17.60 0.08 16.43 0.08L16.43 0.08ZM16.43-0.86Q17.30-0.86 18.01-1.27Q18.71-1.68 19.11-2.44Q19.51-3.19 19.51-4.19L19.51-4.19Q19.51-5.20 19.11-5.95Q18.71-6.70 18.01-7.10Q17.32-7.51 16.43-7.51L16.43-7.51Q15.54-7.51 14.84-7.10Q14.15-6.70 13.75-5.95Q13.34-5.20 13.34-4.19L13.34-4.19Q13.34-3.19 13.75-2.44Q14.15-1.68 14.85-1.27Q15.55-0.86 16.43-0.86L16.43-0.86ZM27.78 0L26.47 0L24.48-3.42L23.16-3.42L23.16 0L22.07 0L22.07-8.36L24.77-8.36Q25.72-8.36 26.37-8.04Q27.02-7.72 27.35-7.16Q27.67-6.61 27.67-5.90L27.67-5.90Q27.67-5.04 27.17-4.38Q26.68-3.72 25.68-3.50L25.68-3.50L27.78 0ZM23.16-7.46L23.16-4.30L24.77-4.30Q25.66-4.30 26.10-4.73Q26.54-5.17 26.54-5.90L26.54-5.90Q26.54-6.65 26.11-7.06Q25.67-7.46 24.77-7.46L24.77-7.46L23.16-7.46ZM31.97-8.36Q33.34-8.36 34.34-7.85Q35.34-7.34 35.87-6.40Q36.41-5.45 36.41-4.16L36.41-4.16Q36.41-2.88 35.87-1.94Q35.34-1.00 34.34-0.50Q33.34 0 31.97 0L31.97 0L29.36 0L29.36-8.36L31.97-8.36ZM31.97-0.90Q33.59-0.90 34.44-1.76Q35.29-2.62 35.29-4.16L35.29-4.16Q35.29-5.72 34.43-6.60Q33.58-7.48 31.97-7.48L31.97-7.48L30.46-7.48L30.46-0.90L31.97-0.90ZM43.44-5.92Q43.44-4.87 42.73-4.18Q42.01-3.49 40.55-3.49L40.55-3.49L38.94-3.49L38.94 0L37.85 0L37.85-8.36L40.55-8.36Q41.96-8.36 42.70-7.68Q43.44-7.00 43.44-5.92L43.44-5.92ZM40.55-4.39Q41.46-4.39 41.89-4.79Q42.32-5.18 42.32-5.92L42.32-5.92Q42.32-7.46 40.55-7.46L40.55-7.46L38.94-7.46L38.94-4.39L40.55-4.39ZM50.51 0L49.20 0L47.21-3.42L45.89-3.42L45.89 0L44.80 0L44.80-8.36L47.50-8.36Q48.44-8.36 49.10-8.04Q49.75-7.72 50.08-7.16Q50.40-6.61 50.40-5.90L50.40-5.90Q50.40-5.04 49.90-4.38Q49.40-3.72 48.41-3.50L48.41-3.50L50.51 0ZM45.89-7.46L45.89-4.30L47.50-4.30Q48.38-4.30 48.83-4.73Q49.27-5.17 49.27-5.90L49.27-5.90Q49.27-6.65 48.83-7.06Q48.40-7.46 47.50-7.46L47.50-7.46L45.89-7.46ZM56.59-7.48L53.18-7.48L53.18-4.68L56.23-4.68L56.23-3.78L53.18-3.78L53.18-0.90L56.59-0.90L56.59 0L52.09 0L52.09-8.38L56.59-8.38L56.59-7.48ZM60.90 0.08Q60.07 0.08 59.42-0.21Q58.76-0.50 58.39-1.03Q58.02-1.55 58.01-2.23L58.01-2.23L59.17-2.23Q59.23-1.64 59.66-1.24Q60.08-0.84 60.90-0.84L60.90-0.84Q61.68-0.84 62.13-1.23Q62.58-1.62 62.58-2.23L62.58-2.23Q62.58-2.71 62.32-3.01Q62.05-3.31 61.66-3.47Q61.26-3.62 60.59-3.80L60.59-3.80Q59.76-4.02 59.26-4.24Q58.76-4.45 58.41-4.91Q58.06-5.38 58.06-6.16L58.06-6.16Q58.06-6.84 58.40-7.37Q58.75-7.90 59.38-8.18Q60.01-8.47 60.83-8.47L60.83-8.47Q62.00-8.47 62.75-7.88Q63.50-7.30 63.60-6.32L63.60-6.32L62.40-6.32Q62.34-6.80 61.90-7.17Q61.45-7.54 60.72-7.54L60.72-7.54Q60.04-7.54 59.60-7.18Q59.17-6.83 59.17-6.19L59.17-6.19Q59.17-5.74 59.43-5.45Q59.69-5.16 60.07-5.01Q60.44-4.86 61.13-4.67L61.13-4.67Q61.96-4.44 62.46-4.22Q62.96-4.00 63.32-3.53Q63.68-3.07 63.68-2.28L63.68-2.28Q63.68-1.67 63.36-1.13Q63.04-0.59 62.40-0.25Q61.76 0.08 60.90 0.08L60.90 0.08ZM67.94 0.08Q67.12 0.08 66.46-0.21Q65.81-0.50 65.44-1.03Q65.06-1.55 65.05-2.23L65.05-2.23L66.22-2.23Q66.28-1.64 66.70-1.24Q67.13-0.84 67.94-0.84L67.94-0.84Q68.72-0.84 69.17-1.23Q69.62-1.62 69.62-2.23L69.62-2.23Q69.62-2.71 69.36-3.01Q69.10-3.31 68.70-3.47Q68.30-3.62 67.63-3.80L67.63-3.80Q66.80-4.02 66.31-4.24Q65.81-4.45 65.45-4.91Q65.10-5.38 65.10-6.16L65.10-6.16Q65.10-6.84 65.45-7.37Q65.80-7.90 66.43-8.18Q67.06-8.47 67.87-8.47L67.87-8.47Q69.05-8.47 69.80-7.88Q70.55-7.30 70.64-6.32L70.64-6.32L69.44-6.32Q69.38-6.80 68.94-7.17Q68.50-7.54 67.76-7.54L67.76-7.54Q67.08-7.54 66.65-7.18Q66.22-6.83 66.22-6.19L66.22-6.19Q66.22-5.74 66.47-5.45Q66.73-5.16 67.11-5.01Q67.49-4.86 68.17-4.67L68.17-4.67Q69-4.44 69.50-4.22Q70.01-4.00 70.37-3.53Q70.73-3.07 70.73-2.28L70.73-2.28Q70.73-1.67 70.40-1.13Q70.08-0.59 69.44-0.25Q68.81 0.08 67.94 0.08L67.94 0.08Z" transform="translate(-0.276, 8.472)"></path></g></g></g></g>
</svg>
